<mxfile host="app.diagrams.net" modified="2021-11-19T04:07:43.369Z" agent="5.0 (Windows NT 10.0; Win64; x64) AppleWebKit/537.36 (KHTML, like Gecko) Chrome/95.0.4638.69 Safari/537.36" etag="jiO2to44zvAgeI5R4W_E" version="15.8.2" type="github" pages="3">
  <diagram id="2l2DRXjW6z1adrlbyeLH" name="Page-1">
    <mxGraphModel dx="1038" dy="579" grid="1" gridSize="10" guides="1" tooltips="1" connect="1" arrows="1" fold="1" page="1" pageScale="1" pageWidth="827" pageHeight="1169" math="0" shadow="0">
      <root>
        <mxCell id="0" />
        <mxCell id="1" parent="0" />
        <mxCell id="LzhUkaEx9x8shCr1l-lN-4" value="" style="edgeStyle=orthogonalEdgeStyle;rounded=0;orthogonalLoop=1;jettySize=auto;html=1;" edge="1" parent="1" source="LzhUkaEx9x8shCr1l-lN-2" target="LzhUkaEx9x8shCr1l-lN-3">
          <mxGeometry relative="1" as="geometry" />
        </mxCell>
        <mxCell id="LzhUkaEx9x8shCr1l-lN-2" value="Inicio" style="strokeWidth=2;html=1;shape=mxgraph.flowchart.terminator;whiteSpace=wrap;" vertex="1" parent="1">
          <mxGeometry x="350" y="20" width="90" height="40" as="geometry" />
        </mxCell>
        <mxCell id="LzhUkaEx9x8shCr1l-lN-6" value="" style="edgeStyle=orthogonalEdgeStyle;rounded=0;orthogonalLoop=1;jettySize=auto;html=1;" edge="1" parent="1" source="LzhUkaEx9x8shCr1l-lN-3" target="LzhUkaEx9x8shCr1l-lN-5">
          <mxGeometry relative="1" as="geometry" />
        </mxCell>
        <mxCell id="LzhUkaEx9x8shCr1l-lN-3" value="Leer velocidadkmxh" style="shape=parallelogram;perimeter=parallelogramPerimeter;whiteSpace=wrap;html=1;fixedSize=1;strokeWidth=2;" vertex="1" parent="1">
          <mxGeometry x="320" y="80" width="150" height="50" as="geometry" />
        </mxCell>
        <mxCell id="LzhUkaEx9x8shCr1l-lN-8" value="" style="edgeStyle=orthogonalEdgeStyle;rounded=0;orthogonalLoop=1;jettySize=auto;html=1;" edge="1" parent="1" source="LzhUkaEx9x8shCr1l-lN-5" target="LzhUkaEx9x8shCr1l-lN-7">
          <mxGeometry relative="1" as="geometry" />
        </mxCell>
        <mxCell id="LzhUkaEx9x8shCr1l-lN-5" value="velocidadmxs = velocidadkmxh*1000/3600" style="whiteSpace=wrap;html=1;strokeWidth=2;" vertex="1" parent="1">
          <mxGeometry x="280" y="150" width="230" height="60" as="geometry" />
        </mxCell>
        <mxCell id="LzhUkaEx9x8shCr1l-lN-10" value="" style="edgeStyle=orthogonalEdgeStyle;rounded=0;orthogonalLoop=1;jettySize=auto;html=1;" edge="1" parent="1" source="LzhUkaEx9x8shCr1l-lN-7" target="LzhUkaEx9x8shCr1l-lN-9">
          <mxGeometry relative="1" as="geometry" />
        </mxCell>
        <mxCell id="LzhUkaEx9x8shCr1l-lN-7" value="Escribir velocidadmxs" style="shape=parallelogram;perimeter=parallelogramPerimeter;whiteSpace=wrap;html=1;fixedSize=1;strokeWidth=2;" vertex="1" parent="1">
          <mxGeometry x="320" y="240" width="150" height="60" as="geometry" />
        </mxCell>
        <mxCell id="LzhUkaEx9x8shCr1l-lN-9" value="Fin" style="strokeWidth=2;html=1;shape=mxgraph.flowchart.terminator;whiteSpace=wrap;" vertex="1" parent="1">
          <mxGeometry x="350" y="330" width="90" height="40" as="geometry" />
        </mxCell>
      </root>
    </mxGraphModel>
  </diagram>
  <diagram id="A0d97h-6OkFQhQmr58Yc" name="Page-2">
    <mxGraphModel dx="1038" dy="579" grid="1" gridSize="10" guides="1" tooltips="1" connect="1" arrows="1" fold="1" page="1" pageScale="1" pageWidth="827" pageHeight="1169" math="0" shadow="0">
      <root>
        <mxCell id="oYYXDGtJaVtimRh6ckqY-0" />
        <mxCell id="oYYXDGtJaVtimRh6ckqY-1" parent="oYYXDGtJaVtimRh6ckqY-0" />
        <mxCell id="V16TeuZDc3ysSvWhT_rx-0" value="" style="edgeStyle=orthogonalEdgeStyle;rounded=0;orthogonalLoop=1;jettySize=auto;html=1;" edge="1" parent="oYYXDGtJaVtimRh6ckqY-1" source="V16TeuZDc3ysSvWhT_rx-1" target="V16TeuZDc3ysSvWhT_rx-3">
          <mxGeometry relative="1" as="geometry" />
        </mxCell>
        <mxCell id="V16TeuZDc3ysSvWhT_rx-1" value="Inicio" style="strokeWidth=2;html=1;shape=mxgraph.flowchart.terminator;whiteSpace=wrap;" vertex="1" parent="oYYXDGtJaVtimRh6ckqY-1">
          <mxGeometry x="350" y="20" width="90" height="40" as="geometry" />
        </mxCell>
        <mxCell id="V16TeuZDc3ysSvWhT_rx-2" value="" style="edgeStyle=orthogonalEdgeStyle;rounded=0;orthogonalLoop=1;jettySize=auto;html=1;" edge="1" parent="oYYXDGtJaVtimRh6ckqY-1" source="V16TeuZDc3ysSvWhT_rx-3">
          <mxGeometry relative="1" as="geometry">
            <mxPoint x="395" y="150" as="targetPoint" />
          </mxGeometry>
        </mxCell>
        <mxCell id="V16TeuZDc3ysSvWhT_rx-3" value="Leer preciotraje" style="shape=parallelogram;perimeter=parallelogramPerimeter;whiteSpace=wrap;html=1;fixedSize=1;strokeWidth=2;" vertex="1" parent="oYYXDGtJaVtimRh6ckqY-1">
          <mxGeometry x="335" y="80" width="120" height="50" as="geometry" />
        </mxCell>
        <mxCell id="V16TeuZDc3ysSvWhT_rx-8" value="Fin" style="strokeWidth=2;html=1;shape=mxgraph.flowchart.terminator;whiteSpace=wrap;" vertex="1" parent="oYYXDGtJaVtimRh6ckqY-1">
          <mxGeometry x="350" y="500" width="90" height="40" as="geometry" />
        </mxCell>
        <mxCell id="V16TeuZDc3ysSvWhT_rx-10" style="edgeStyle=orthogonalEdgeStyle;rounded=0;orthogonalLoop=1;jettySize=auto;html=1;entryX=0.5;entryY=0;entryDx=0;entryDy=0;" edge="1" parent="oYYXDGtJaVtimRh6ckqY-1" source="V16TeuZDc3ysSvWhT_rx-9" target="V16TeuZDc3ysSvWhT_rx-15">
          <mxGeometry relative="1" as="geometry">
            <mxPoint x="680" y="120" as="targetPoint" />
          </mxGeometry>
        </mxCell>
        <mxCell id="Z9FrGyjEuQckJ5TwMc_W-4" style="edgeStyle=orthogonalEdgeStyle;rounded=0;orthogonalLoop=1;jettySize=auto;html=1;entryX=0.5;entryY=0;entryDx=0;entryDy=0;" edge="1" parent="oYYXDGtJaVtimRh6ckqY-1" source="V16TeuZDc3ysSvWhT_rx-9" target="Z9FrGyjEuQckJ5TwMc_W-2">
          <mxGeometry relative="1" as="geometry">
            <mxPoint x="180" y="190" as="targetPoint" />
          </mxGeometry>
        </mxCell>
        <mxCell id="V16TeuZDc3ysSvWhT_rx-9" value="preciotraje &amp;gt; 400" style="strokeWidth=2;html=1;shape=mxgraph.flowchart.decision;whiteSpace=wrap;" vertex="1" parent="oYYXDGtJaVtimRh6ckqY-1">
          <mxGeometry x="295" y="150" width="200" height="80" as="geometry" />
        </mxCell>
        <mxCell id="V16TeuZDc3ysSvWhT_rx-11" value="Verdadero" style="text;html=1;strokeColor=none;fillColor=none;align=center;verticalAlign=middle;whiteSpace=wrap;rounded=0;" vertex="1" parent="oYYXDGtJaVtimRh6ckqY-1">
          <mxGeometry x="550" y="169" width="60" height="30" as="geometry" />
        </mxCell>
        <mxCell id="V16TeuZDc3ysSvWhT_rx-13" value="Falso" style="text;html=1;strokeColor=none;fillColor=none;align=center;verticalAlign=middle;whiteSpace=wrap;rounded=0;" vertex="1" parent="oYYXDGtJaVtimRh6ckqY-1">
          <mxGeometry x="172" y="168" width="60" height="30" as="geometry" />
        </mxCell>
        <mxCell id="V16TeuZDc3ysSvWhT_rx-17" value="" style="edgeStyle=orthogonalEdgeStyle;rounded=0;orthogonalLoop=1;jettySize=auto;html=1;" edge="1" parent="oYYXDGtJaVtimRh6ckqY-1" source="V16TeuZDc3ysSvWhT_rx-15" target="V16TeuZDc3ysSvWhT_rx-16">
          <mxGeometry relative="1" as="geometry" />
        </mxCell>
        <mxCell id="V16TeuZDc3ysSvWhT_rx-15" value="descuento=preciotraje*0.10" style="rounded=0;whiteSpace=wrap;html=1;" vertex="1" parent="oYYXDGtJaVtimRh6ckqY-1">
          <mxGeometry x="580" y="220" width="180" height="30" as="geometry" />
        </mxCell>
        <mxCell id="JonY9aPpWVf55O8WzKBe-4" style="edgeStyle=orthogonalEdgeStyle;rounded=0;orthogonalLoop=1;jettySize=auto;html=1;" edge="1" parent="oYYXDGtJaVtimRh6ckqY-1" source="V16TeuZDc3ysSvWhT_rx-16" target="JonY9aPpWVf55O8WzKBe-3">
          <mxGeometry relative="1" as="geometry" />
        </mxCell>
        <mxCell id="V16TeuZDc3ysSvWhT_rx-16" value="totalapagar=preciotraje-descuento" style="rounded=0;whiteSpace=wrap;html=1;" vertex="1" parent="oYYXDGtJaVtimRh6ckqY-1">
          <mxGeometry x="570" y="280" width="200" height="30" as="geometry" />
        </mxCell>
        <mxCell id="cRmN8E2hCPI63njFeAf7-0" style="edgeStyle=orthogonalEdgeStyle;rounded=0;orthogonalLoop=1;jettySize=auto;html=1;entryX=0.5;entryY=0;entryDx=0;entryDy=0;entryPerimeter=0;" edge="1" parent="oYYXDGtJaVtimRh6ckqY-1" source="V16TeuZDc3ysSvWhT_rx-18" target="V16TeuZDc3ysSvWhT_rx-8">
          <mxGeometry relative="1" as="geometry" />
        </mxCell>
        <mxCell id="V16TeuZDc3ysSvWhT_rx-18" value="Escribir totalapagar" style="shape=parallelogram;perimeter=parallelogramPerimeter;whiteSpace=wrap;html=1;fixedSize=1;strokeWidth=2;" vertex="1" parent="oYYXDGtJaVtimRh6ckqY-1">
          <mxGeometry x="325" y="420" width="140" height="50" as="geometry" />
        </mxCell>
        <mxCell id="Z9FrGyjEuQckJ5TwMc_W-1" value="" style="edgeStyle=orthogonalEdgeStyle;rounded=0;orthogonalLoop=1;jettySize=auto;html=1;" edge="1" parent="oYYXDGtJaVtimRh6ckqY-1" source="Z9FrGyjEuQckJ5TwMc_W-2" target="Z9FrGyjEuQckJ5TwMc_W-3">
          <mxGeometry relative="1" as="geometry" />
        </mxCell>
        <mxCell id="Z9FrGyjEuQckJ5TwMc_W-2" value="descuento=preciotraje*0.04" style="rounded=0;whiteSpace=wrap;html=1;" vertex="1" parent="oYYXDGtJaVtimRh6ckqY-1">
          <mxGeometry x="50" y="215.5" width="180" height="30" as="geometry" />
        </mxCell>
        <mxCell id="JonY9aPpWVf55O8WzKBe-1" style="edgeStyle=orthogonalEdgeStyle;rounded=0;orthogonalLoop=1;jettySize=auto;html=1;entryX=0.5;entryY=0;entryDx=0;entryDy=0;" edge="1" parent="oYYXDGtJaVtimRh6ckqY-1" source="Z9FrGyjEuQckJ5TwMc_W-3" target="JonY9aPpWVf55O8WzKBe-0">
          <mxGeometry relative="1" as="geometry" />
        </mxCell>
        <mxCell id="Z9FrGyjEuQckJ5TwMc_W-3" value="totalapagar=preciotraje-descuento" style="rounded=0;whiteSpace=wrap;html=1;" vertex="1" parent="oYYXDGtJaVtimRh6ckqY-1">
          <mxGeometry x="40" y="275.5" width="200" height="30" as="geometry" />
        </mxCell>
        <mxCell id="Z9FrGyjEuQckJ5TwMc_W-11" style="edgeStyle=orthogonalEdgeStyle;rounded=0;orthogonalLoop=1;jettySize=auto;html=1;entryX=0.5;entryY=0;entryDx=0;entryDy=0;" edge="1" parent="oYYXDGtJaVtimRh6ckqY-1" source="Z9FrGyjEuQckJ5TwMc_W-8" target="V16TeuZDc3ysSvWhT_rx-18">
          <mxGeometry relative="1" as="geometry" />
        </mxCell>
        <mxCell id="Z9FrGyjEuQckJ5TwMc_W-8" value="" style="ellipse;whiteSpace=wrap;html=1;aspect=fixed;" vertex="1" parent="oYYXDGtJaVtimRh6ckqY-1">
          <mxGeometry x="370" y="340" width="50" height="50" as="geometry" />
        </mxCell>
        <mxCell id="JonY9aPpWVf55O8WzKBe-2" style="edgeStyle=orthogonalEdgeStyle;rounded=0;orthogonalLoop=1;jettySize=auto;html=1;entryX=0;entryY=0.5;entryDx=0;entryDy=0;" edge="1" parent="oYYXDGtJaVtimRh6ckqY-1" source="JonY9aPpWVf55O8WzKBe-0" target="Z9FrGyjEuQckJ5TwMc_W-8">
          <mxGeometry relative="1" as="geometry" />
        </mxCell>
        <mxCell id="JonY9aPpWVf55O8WzKBe-0" value="Escribir &quot;Descuento 4%&quot;" style="shape=parallelogram;perimeter=parallelogramPerimeter;whiteSpace=wrap;html=1;fixedSize=1;strokeWidth=2;" vertex="1" parent="oYYXDGtJaVtimRh6ckqY-1">
          <mxGeometry x="50" y="340" width="180" height="50" as="geometry" />
        </mxCell>
        <mxCell id="JonY9aPpWVf55O8WzKBe-5" style="edgeStyle=orthogonalEdgeStyle;rounded=0;orthogonalLoop=1;jettySize=auto;html=1;entryX=1;entryY=0.5;entryDx=0;entryDy=0;" edge="1" parent="oYYXDGtJaVtimRh6ckqY-1" source="JonY9aPpWVf55O8WzKBe-3" target="Z9FrGyjEuQckJ5TwMc_W-8">
          <mxGeometry relative="1" as="geometry" />
        </mxCell>
        <mxCell id="JonY9aPpWVf55O8WzKBe-3" value="Escribir &quot;Descuento 10%&quot;" style="shape=parallelogram;perimeter=parallelogramPerimeter;whiteSpace=wrap;html=1;fixedSize=1;strokeWidth=2;" vertex="1" parent="oYYXDGtJaVtimRh6ckqY-1">
          <mxGeometry x="580" y="340" width="180" height="50" as="geometry" />
        </mxCell>
      </root>
    </mxGraphModel>
  </diagram>
  <diagram id="yL5gDAtUFv61h7dA0tZt" name="Page-3">
    <mxGraphModel dx="1038" dy="579" grid="1" gridSize="10" guides="1" tooltips="1" connect="1" arrows="1" fold="1" page="1" pageScale="1" pageWidth="827" pageHeight="1169" math="0" shadow="0">
      <root>
        <mxCell id="1rTXIU9BOq4l5JPXkXNG-0" />
        <mxCell id="1rTXIU9BOq4l5JPXkXNG-1" parent="1rTXIU9BOq4l5JPXkXNG-0" />
        <mxCell id="UyXR-IP-L9LmReY1_ctN-0" value="" style="edgeStyle=orthogonalEdgeStyle;rounded=0;orthogonalLoop=1;jettySize=auto;html=1;" edge="1" parent="1rTXIU9BOq4l5JPXkXNG-1" source="UyXR-IP-L9LmReY1_ctN-1" target="UyXR-IP-L9LmReY1_ctN-3">
          <mxGeometry relative="1" as="geometry" />
        </mxCell>
        <mxCell id="UyXR-IP-L9LmReY1_ctN-1" value="Inicio" style="strokeWidth=2;html=1;shape=mxgraph.flowchart.terminator;whiteSpace=wrap;" vertex="1" parent="1rTXIU9BOq4l5JPXkXNG-1">
          <mxGeometry x="350" y="20" width="90" height="40" as="geometry" />
        </mxCell>
        <mxCell id="UyXR-IP-L9LmReY1_ctN-2" value="" style="edgeStyle=orthogonalEdgeStyle;rounded=0;orthogonalLoop=1;jettySize=auto;html=1;" edge="1" parent="1rTXIU9BOq4l5JPXkXNG-1" source="UyXR-IP-L9LmReY1_ctN-3" target="UyXR-IP-L9LmReY1_ctN-5">
          <mxGeometry relative="1" as="geometry">
            <mxPoint x="395" y="130" as="targetPoint" />
          </mxGeometry>
        </mxCell>
        <mxCell id="UyXR-IP-L9LmReY1_ctN-3" value="Leer numerodepersonas" style="shape=parallelogram;perimeter=parallelogramPerimeter;whiteSpace=wrap;html=1;fixedSize=1;strokeWidth=2;" vertex="1" parent="1rTXIU9BOq4l5JPXkXNG-1">
          <mxGeometry x="300" y="80" width="190" height="30" as="geometry" />
        </mxCell>
        <mxCell id="UyXR-IP-L9LmReY1_ctN-17" style="edgeStyle=orthogonalEdgeStyle;rounded=0;orthogonalLoop=1;jettySize=auto;html=1;" edge="1" parent="1rTXIU9BOq4l5JPXkXNG-1" source="UyXR-IP-L9LmReY1_ctN-4">
          <mxGeometry relative="1" as="geometry">
            <mxPoint x="395" y="180" as="targetPoint" />
            <Array as="points">
              <mxPoint x="120" y="360" />
              <mxPoint x="120" y="180" />
            </Array>
          </mxGeometry>
        </mxCell>
        <mxCell id="kKcdQ9PUWHSbLdnjvfvd-3" style="edgeStyle=orthogonalEdgeStyle;rounded=0;orthogonalLoop=1;jettySize=auto;html=1;" edge="1" parent="1rTXIU9BOq4l5JPXkXNG-1" source="UyXR-IP-L9LmReY1_ctN-4" target="kKcdQ9PUWHSbLdnjvfvd-2">
          <mxGeometry relative="1" as="geometry">
            <mxPoint x="640" y="410" as="targetPoint" />
            <Array as="points">
              <mxPoint x="640" y="360" />
            </Array>
          </mxGeometry>
        </mxCell>
        <mxCell id="UyXR-IP-L9LmReY1_ctN-4" value="contador &amp;lt;= numerodepersonas" style="strokeWidth=2;html=1;shape=mxgraph.flowchart.decision;whiteSpace=wrap;" vertex="1" parent="1rTXIU9BOq4l5JPXkXNG-1">
          <mxGeometry x="290" y="320" width="210" height="80" as="geometry" />
        </mxCell>
        <mxCell id="UyXR-IP-L9LmReY1_ctN-14" style="edgeStyle=orthogonalEdgeStyle;rounded=0;orthogonalLoop=1;jettySize=auto;html=1;entryX=0.5;entryY=0;entryDx=0;entryDy=0;" edge="1" parent="1rTXIU9BOq4l5JPXkXNG-1" source="UyXR-IP-L9LmReY1_ctN-5" target="UyXR-IP-L9LmReY1_ctN-11">
          <mxGeometry relative="1" as="geometry" />
        </mxCell>
        <mxCell id="UyXR-IP-L9LmReY1_ctN-5" value="contador = 1&lt;br&gt;sumadeedades=0" style="rounded=0;whiteSpace=wrap;html=1;" vertex="1" parent="1rTXIU9BOq4l5JPXkXNG-1">
          <mxGeometry x="335" y="130" width="120" height="40" as="geometry" />
        </mxCell>
        <mxCell id="UyXR-IP-L9LmReY1_ctN-15" style="edgeStyle=orthogonalEdgeStyle;rounded=0;orthogonalLoop=1;jettySize=auto;html=1;entryX=0.5;entryY=0;entryDx=0;entryDy=0;" edge="1" parent="1rTXIU9BOq4l5JPXkXNG-1" source="UyXR-IP-L9LmReY1_ctN-11" target="UyXR-IP-L9LmReY1_ctN-12">
          <mxGeometry relative="1" as="geometry" />
        </mxCell>
        <mxCell id="UyXR-IP-L9LmReY1_ctN-11" value="Leer edad" style="shape=parallelogram;perimeter=parallelogramPerimeter;whiteSpace=wrap;html=1;fixedSize=1;strokeWidth=2;" vertex="1" parent="1rTXIU9BOq4l5JPXkXNG-1">
          <mxGeometry x="300" y="200" width="190" height="30" as="geometry" />
        </mxCell>
        <mxCell id="UyXR-IP-L9LmReY1_ctN-16" style="edgeStyle=orthogonalEdgeStyle;rounded=0;orthogonalLoop=1;jettySize=auto;html=1;" edge="1" parent="1rTXIU9BOq4l5JPXkXNG-1" source="UyXR-IP-L9LmReY1_ctN-12" target="UyXR-IP-L9LmReY1_ctN-4">
          <mxGeometry relative="1" as="geometry" />
        </mxCell>
        <mxCell id="UyXR-IP-L9LmReY1_ctN-12" value="sumadeedades=sumadeedades+edad" style="rounded=0;whiteSpace=wrap;html=1;" vertex="1" parent="1rTXIU9BOq4l5JPXkXNG-1">
          <mxGeometry x="290" y="260" width="210" height="30" as="geometry" />
        </mxCell>
        <mxCell id="kKcdQ9PUWHSbLdnjvfvd-0" value="Verdadero" style="text;html=1;strokeColor=none;fillColor=none;align=center;verticalAlign=middle;whiteSpace=wrap;rounded=0;" vertex="1" parent="1rTXIU9BOq4l5JPXkXNG-1">
          <mxGeometry x="182" y="338" width="60" height="30" as="geometry" />
        </mxCell>
        <mxCell id="-YUZh_tPZHO6iP8IkyJe-3" style="edgeStyle=orthogonalEdgeStyle;rounded=0;orthogonalLoop=1;jettySize=auto;html=1;entryX=1;entryY=0.5;entryDx=0;entryDy=0;" edge="1" parent="1rTXIU9BOq4l5JPXkXNG-1" source="kKcdQ9PUWHSbLdnjvfvd-2" target="-YUZh_tPZHO6iP8IkyJe-2">
          <mxGeometry relative="1" as="geometry">
            <mxPoint x="550" y="530" as="targetPoint" />
            <Array as="points">
              <mxPoint x="640" y="515" />
            </Array>
          </mxGeometry>
        </mxCell>
        <mxCell id="kKcdQ9PUWHSbLdnjvfvd-2" value="promedioedades = sumaedades/numerodepersonas" style="rounded=0;whiteSpace=wrap;html=1;" vertex="1" parent="1rTXIU9BOq4l5JPXkXNG-1">
          <mxGeometry x="480" y="420" width="300" height="40" as="geometry" />
        </mxCell>
        <mxCell id="-YUZh_tPZHO6iP8IkyJe-0" value="Falso" style="text;html=1;strokeColor=none;fillColor=none;align=center;verticalAlign=middle;whiteSpace=wrap;rounded=0;" vertex="1" parent="1rTXIU9BOq4l5JPXkXNG-1">
          <mxGeometry x="525" y="337" width="60" height="30" as="geometry" />
        </mxCell>
        <mxCell id="-YUZh_tPZHO6iP8IkyJe-2" value="Escribir promedioedades" style="shape=parallelogram;perimeter=parallelogramPerimeter;whiteSpace=wrap;html=1;fixedSize=1;strokeWidth=2;" vertex="1" parent="1rTXIU9BOq4l5JPXkXNG-1">
          <mxGeometry x="300" y="500" width="190" height="30" as="geometry" />
        </mxCell>
        <mxCell id="Rh0g7e5USAVI5JBOCAH5-0" value="Fin" style="strokeWidth=2;html=1;shape=mxgraph.flowchart.terminator;whiteSpace=wrap;" vertex="1" parent="1rTXIU9BOq4l5JPXkXNG-1">
          <mxGeometry x="350" y="560" width="90" height="40" as="geometry" />
        </mxCell>
        <mxCell id="Rh0g7e5USAVI5JBOCAH5-1" style="edgeStyle=orthogonalEdgeStyle;rounded=0;orthogonalLoop=1;jettySize=auto;html=1;entryX=0.5;entryY=0;entryDx=0;entryDy=0;entryPerimeter=0;" edge="1" parent="1rTXIU9BOq4l5JPXkXNG-1" target="Rh0g7e5USAVI5JBOCAH5-0">
          <mxGeometry relative="1" as="geometry">
            <mxPoint x="395" y="530" as="sourcePoint" />
          </mxGeometry>
        </mxCell>
      </root>
    </mxGraphModel>
  </diagram>
</mxfile>
